0
SECTION
2
HEADER
9
$INSUNITS
70
4
9
$ACADVER
1
AC1014
9
$HANDSEED
5
FFFF
0
ENDSEC
0
SECTION
2
TABLES
0
TABLE
2
VPORT
5
8
100
AcDbSymbolTable
0
ENDTAB
0
TABLE
2
LTYPE
5
5
100
AcDbSymbolTable
0
LTYPE
5
14
100
AcDbSymbolTableRecord
100
AcDbLinetypeTableRecord
2
BYBLOCK
70
0
0
LTYPE
5
15
100
AcDbSymbolTableRecord
100
AcDbLinetypeTableRecord
2
BYLAYER
70
0
0
ENDTAB
0
TABLE
2
LAYER
5
2
100
AcDbSymbolTable
70
2
0
LAYER
5
50
100
AcDbSymbolTableRecord
100
AcDbLayerTableRecord
2
0
70
0
6
CONTINUOUS
0
ENDTAB
0
TABLE
2
STYLE
5
3
100
AcDbSymbolTable
70
1
0
STYLE
5
11
100
AcDbSymbolTableRecord
100
AcDbTextStyleTableRecord
2
STANDARD
70
0
0
ENDTAB
0
TABLE
2
VIEW
5
6
100
AcDbSymbolTable
70
0
0
ENDTAB
0
TABLE
2
UCS
5
7
100
AcDbSymbolTable
70
0
0
ENDTAB
0
TABLE
2
APPID
5
9
100
AcDbSymbolTable
70
2
0
APPID
5
12
100
AcDbSymbolTableRecord
100
AcDbRegAppTableRecord
2
ACAD
70
0
0
ENDTAB
0
TABLE
2
DIMSTYLE
5
A
100
AcDbSymbolTable
70
1
0
ENDTAB
0
TABLE
2
BLOCK_RECORD
5
1
100
AcDbSymbolTable
70
1
0
BLOCK_RECORD
5
1F
100
AcDbSymbolTableRecord
100
AcDbBlockTableRecord
2
*MODEL_SPACE
0
BLOCK_RECORD
5
1B
100
AcDbSymbolTableRecord
100
AcDbBlockTableRecord
2
*PAPER_SPACE
0
ENDTAB
0
ENDSEC
0
SECTION
2
BLOCKS
0
BLOCK
5
20
100
AcDbEntity
100
AcDbBlockBegin
2
*MODEL_SPACE
0
ENDBLK
5
21
100
AcDbEntity
100
AcDbBlockEnd
0
BLOCK
5
1C
100
AcDbEntity
100
AcDbBlockBegin
2
*PAPER_SPACE
0
ENDBLK
5
1D
100
AcDbEntity
100
AcDbBlockEnd
0
ENDSEC
0
SECTION
2
ENTITIES
0
LWPOLYLINE
5
100
100
AcDbEntity
8
0
100
AcDbPolyline
90
82
70
1
43
0.0
10
19.000000596046448
20
-14.000000238418584
42
0.41421356237309537
10
21.000000596046444
20
-16.000000238418583
10
22.00000067055225
20
-16.000000238418583
42
0.41421356237309698
10
24.000000670552257
20
-14.000000238418579
10
24.000000670552254
20
-13.000000178813938
10
39.000000596046448
20
-13.000000178813938
10
39.000000596046448
20
-14.000000238418584
42
0.41421356237309404
10
41.000000596046448
20
-16.000000238418579
10
42.000000670552254
20
-16.000000238418583
42
0.41421356237309404
10
44.000000670552254
20
-14.000000238418579
10
44.000000670552254
20
-13.000000178813938
42
0.21342176141253297
10
45.000000670552247
20
-10.763932267954168
10
45.000000670552254
20
10.763932267954164
42
0.21342176141253383
10
44.000000703665947
20
13.000000215836174
10
44.000000670552254
20
14.000000238418584
42
0.41421356237309404
10
42.000000670552268
20
16.000000238418579
10
41.000000596046448
20
16.000000238418576
42
0.41421356237309437
10
39.000000596046441
20
14.000000238418577
10
39.000000596046448
20
13.000000178813934
10
24.000000670552254
20
13.000000178813934
10
24.000000670552254
20
14.000000238418584
42
0.41421356237309276
10
22.000000670552254
20
16.000000238418579
10
21.000000596046448
20
16.000000238418576
42
0.41421356237309404
10
19.000000596046451
20
14.000000238418577
10
19.000000596046448
20
13.000000178813934
10
3.9999999999999991
20
13.000000178813938
10
4
20
7.6078884164343759
10
5
20
7.607888416434375
10
10.961378076461763
20
4.2013866584562241
10
5
20
4.2013866584562258
10
5
20
0.50117571826796881
10
17.90892314168816
20
0.50117571826796881
10
18.000572774688028
20
2.0000000000000027
10
18.000572774688028
20
4.2013866584562241
10
13.373231325520365
20
4.2013866584562241
10
6.3732312212122739
20
8.2013867180608422
10
18.000000268220901
20
8.2013867180608422
10
18.000000268220901
20
9.0000001341104525
10
22.215793497902126
20
9.0000001341104525
10
22.215793497902126
20
8.1324385578391993
10
26.787978258088895
20
8.1324385578391993
10
34.019745629999363
20
4.0000000596046457
10
22.426684567412153
20
4.0000000596046457
10
22.426684567412153
20
0.50117571826796881
10
29.150496874457559
20
0.50117571826796881
10
29.150496874457559
20
1.6470205329791465
42
0.12092908097089819
10
37.400207970210246
20
3.6718918952859059
10
29.594251310741974
20
8.1324385578391993
10
37.961200072591652
20
8.1324385578391993
10
37.961200072591652
20
9.0000001341104525
10
40.000000596046448
20
9.0000001341104525
10
40.000000596046448
20
1.1000000000000021
10
33.487736852854837
20
1.0999999999999999
42
0.99999999999999989
10
33.487736852854837
20
-1.0999999999999974
10
40.000000596046448
20
-1.0999999999999999
10
40.000000596046448
20
-9.000000134110449
10
37.961200072591652
20
-9.000000134110449
10
37.961200072591652
20
-8.1324385578391976
10
29.594251310741974
20
-8.1324385578391976
10
37.400207970210246
20
-3.6718918952859014
42
0.12092908097089813
10
29.150496874457559
20
-1.6470205329791465
10
29.150496874457559
20
-0.50117571826796659
10
22.426684567412153
20
-0.50117571826796659
10
22.426684567412153
20
-4.0000000596046448
10
34.019745629999363
20
-4.0000000596046448
10
26.787978258088895
20
-8.1324385578391976
10
22.215793497902126
20
-8.1324385578391976
10
22.215793497902126
20
-9.000000134110449
10
18.000000268220901
20
-9.000000134110449
10
18.000000268220901
20
-8.2013867180608386
10
6.3732312212122739
20
-8.2013867180608386
10
13.373231325520365
20
-4.2013866584562241
10
18.000572774688028
20
-4.2013866584562241
10
18.000572774688028
20
-1.9999999999999996
10
17.908923141688163
20
-0.50117571826796659
10
5
20
-0.50117571826796659
10
5
20
-4.2013866584562241
10
10.961378076461763
20
-4.2013866584562241
10
5
20
-7.6078884164343732
10
4
20
-7.6078884164343732
10
4
20
-13.000000178813934
10
19.000000596046448
20
-13.000000178813938
0
LWPOLYLINE
5
101
100
AcDbEntity
8
0
100
AcDbPolyline
90
82
70
1
43
0.0
10
44.000000703665947
20
13.000000215836174
10
44.000000670552254
20
14.000000238418584
42
0.41421356237309404
10
42.000000670552268
20
16.000000238418579
10
41.000000596046448
20
16.000000238418576
42
0.41421356237309437
10
39.000000596046441
20
14.000000238418577
10
39.000000596046448
20
13.000000178813934
10
24.000000670552254
20
13.000000178813934
10
24.000000670552254
20
14.000000238418584
42
0.41421356237309276
10
22.000000670552254
20
16.000000238418579
10
21.000000596046448
20
16.000000238418576
42
0.41421356237309404
10
19.000000596046451
20
14.000000238418577
10
19.000000596046448
20
13.000000178813934
10
3.9999999999999991
20
13.000000178813938
10
4
20
7.6078884164343759
10
5
20
7.607888416434375
10
10.961378076461763
20
4.2013866584562241
10
5
20
4.2013866584562258
10
5
20
0.50117571826796881
10
17.90892314168816
20
0.50117571826796881
10
18.000572774688028
20
2.0000000000000027
10
18.000572774688028
20
4.2013866584562241
10
13.373231325520365
20
4.2013866584562241
10
6.3732312212122739
20
8.2013867180608422
10
18.000000268220901
20
8.2013867180608422
10
18.000000268220901
20
9.0000001341104525
10
22.215793497902126
20
9.0000001341104525
10
22.215793497902126
20
8.1324385578391993
10
26.787978258088895
20
8.1324385578391993
10
34.019745629999363
20
4.0000000596046457
10
22.426684567412153
20
4.0000000596046457
10
22.426684567412153
20
0.50117571826796881
10
29.150496874457559
20
0.50117571826796881
10
29.150496874457559
20
1.6470205329791465
42
0.12092908097089819
10
37.400207970210246
20
3.6718918952859059
10
29.594251310741974
20
8.1324385578391993
10
37.961200072591652
20
8.1324385578391993
10
37.961200072591652
20
9.0000001341104525
10
40.000000596046448
20
9.0000001341104525
10
40.000000596046448
20
1.1000000000000021
10
33.487736852854837
20
1.0999999999999999
42
0.99999999999999989
10
33.487736852854837
20
-1.0999999999999974
10
40.000000596046448
20
-1.0999999999999999
10
40.000000596046448
20
-9.000000134110449
10
37.961200072591652
20
-9.000000134110449
10
37.961200072591652
20
-8.1324385578391976
10
29.594251310741974
20
-8.1324385578391976
10
37.400207970210246
20
-3.6718918952859014
42
0.12092908097089813
10
29.150496874457559
20
-1.6470205329791465
10
29.150496874457559
20
-0.50117571826796659
10
22.426684567412153
20
-0.50117571826796659
10
22.426684567412153
20
-4.0000000596046448
10
34.019745629999363
20
-4.0000000596046448
10
26.787978258088895
20
-8.1324385578391976
10
22.215793497902126
20
-8.1324385578391976
10
22.215793497902126
20
-9.000000134110449
10
18.000000268220901
20
-9.000000134110449
10
18.000000268220901
20
-8.2013867180608386
10
6.3732312212122739
20
-8.2013867180608386
10
13.373231325520365
20
-4.2013866584562241
10
18.000572774688028
20
-4.2013866584562241
10
18.000572774688028
20
-1.9999999999999996
10
17.908923141688163
20
-0.50117571826796659
10
5
20
-0.50117571826796659
10
5
20
-4.2013866584562241
10
10.961378076461763
20
-4.2013866584562241
10
5
20
-7.6078884164343732
10
4
20
-7.6078884164343732
10
4
20
-13.000000178813934
10
19.000000596046448
20
-13.000000178813938
10
19.000000596046448
20
-14.000000238418584
42
0.41421356237309537
10
21.000000596046444
20
-16.000000238418583
10
22.00000067055225
20
-16.000000238418583
42
0.41421356237309698
10
24.000000670552257
20
-14.000000238418579
10
24.000000670552254
20
-13.000000178813938
10
39.000000596046448
20
-13.000000178813938
10
39.000000596046448
20
-14.000000238418584
42
0.41421356237309404
10
41.000000596046448
20
-16.000000238418579
10
42.000000670552254
20
-16.000000238418583
42
0.41421356237309404
10
44.000000670552254
20
-14.000000238418579
10
44.000000670552254
20
-13.000000178813938
42
0.21342176141253297
10
45.000000670552247
20
-10.763932267954168
10
45.000000670552254
20
10.763932267954164
42
0.21342176141253383
0
ENDSEC
0
SECTION
2
OBJECTS
0
DICTIONARY
5
C
100
AcDbDictionary
3
ACAD_GROUP
350
D
3
ACAD_MLINESTYLE
350
17
0
DICTIONARY
5
D
100
AcDbDictionary
0
DICTIONARY
5
1A
330
C
100
AcDbDictionary
0
DICTIONARY
5
17
100
AcDbDictionary
0
ENDSEC
0
EOF
