0
SECTION
2
HEADER
9
$INSUNITS
70
4
9
$ACADVER
1
AC1014
9
$HANDSEED
5
FFFF
0
ENDSEC
0
SECTION
2
TABLES
0
TABLE
2
VPORT
5
8
100
AcDbSymbolTable
0
ENDTAB
0
TABLE
2
LTYPE
5
5
100
AcDbSymbolTable
0
LTYPE
5
14
100
AcDbSymbolTableRecord
100
AcDbLinetypeTableRecord
2
BYBLOCK
70
0
0
LTYPE
5
15
100
AcDbSymbolTableRecord
100
AcDbLinetypeTableRecord
2
BYLAYER
70
0
0
ENDTAB
0
TABLE
2
LAYER
5
2
100
AcDbSymbolTable
70
2
0
LAYER
5
50
100
AcDbSymbolTableRecord
100
AcDbLayerTableRecord
2
0
70
0
6
CONTINUOUS
0
ENDTAB
0
TABLE
2
STYLE
5
3
100
AcDbSymbolTable
70
1
0
STYLE
5
11
100
AcDbSymbolTableRecord
100
AcDbTextStyleTableRecord
2
STANDARD
70
0
0
ENDTAB
0
TABLE
2
VIEW
5
6
100
AcDbSymbolTable
70
0
0
ENDTAB
0
TABLE
2
UCS
5
7
100
AcDbSymbolTable
70
0
0
ENDTAB
0
TABLE
2
APPID
5
9
100
AcDbSymbolTable
70
2
0
APPID
5
12
100
AcDbSymbolTableRecord
100
AcDbRegAppTableRecord
2
ACAD
70
0
0
ENDTAB
0
TABLE
2
DIMSTYLE
5
A
100
AcDbSymbolTable
70
1
0
ENDTAB
0
TABLE
2
BLOCK_RECORD
5
1
100
AcDbSymbolTable
70
1
0
BLOCK_RECORD
5
1F
100
AcDbSymbolTableRecord
100
AcDbBlockTableRecord
2
*MODEL_SPACE
0
BLOCK_RECORD
5
1B
100
AcDbSymbolTableRecord
100
AcDbBlockTableRecord
2
*PAPER_SPACE
0
ENDTAB
0
ENDSEC
0
SECTION
2
BLOCKS
0
BLOCK
5
20
100
AcDbEntity
100
AcDbBlockBegin
2
*MODEL_SPACE
0
ENDBLK
5
21
100
AcDbEntity
100
AcDbBlockEnd
0
BLOCK
5
1C
100
AcDbEntity
100
AcDbBlockBegin
2
*PAPER_SPACE
0
ENDBLK
5
1D
100
AcDbEntity
100
AcDbBlockEnd
0
ENDSEC
0
SECTION
2
ENTITIES
0
SPLINE
5
100
100
AcDbEntity
8
0
100
AcDbSpline
70
0
71
3
72
20
73
16
74
0
42
0.000000001
43
0.0000000001
44
0.0000000001
40
-9.3689109207684498e-05
40
-9.3689109207684498e-05
40
-9.3689109207684498e-05
40
-9.3689109207684498e-05
40
0
40
0
40
0
40
0.52683274259002066
40
0.52683274259002066
40
0.52683274259002066
40
0.95261468753937883
40
0.95261468753937883
40
0.95261468753937883
40
1
40
1
40
1
40
1.0000661328408678
40
1.0000661328408678
40
1.0000661328408678
40
1.0000661328408678
10
108.89315435174039
20
204.97470629044636
30
0
10
108.89304797266847
20
204.97439074903389
30
0
10
108.8929415936116
20
204.97407520766609
30
0
10
108.89283521455366
20
204.97375966629508
30
0
10
108.29477274042262
20
203.19978782748638
30
0
10
107.76055432951523
20
201.58031730158953
30
0
10
107.47294450397065
20
200.34581276125328
30
0
10
107.2405005782099
20
199.3480962152978
30
0
10
107.20066582635779
20
198.61012244584151
30
0
10
107.21929065434114
20
198.40721996162409
30
0
10
107.22136341318871
20
198.38463892518575
30
0
10
107.22350201953873
20
198.36856950681067
30
0
10
107.22496031643064
20
198.3590454603854
30
0
10
107.22498330045296
20
198.35889535316335
30
0
10
107.22500628447527
20
198.35874524594124
30
0
10
107.22502926849828
20
198.35859513871466
30
0
0
SPLINE
5
101
100
AcDbEntity
8
0
100
AcDbSpline
70
0
71
3
72
11
73
7
74
0
42
0.000000001
43
0.0000000001
44
0.0000000001
40
-0.00012731659578066464
40
-0.00012731659578066464
40
-0.00012731659578066464
40
-0.00012731659578066464
40
0
40
0
40
0
40
1
40
1
40
1
40
1
10
107.22502926852299
20
198.35859513855286
30
0
10
107.2250522232966
20
198.35844502701693
30
0
10
107.22507517809566
20
198.3582949153147
30
0
10
107.22509813289471
20
198.35814480361245
30
0
10
107.37611474880133
20
197.37057957914473
30
0
10
107.68625562861722
20
195.800425744862
30
0
10
108.05294742628284
20
193.95986701858658
30
0
0
SPLINE
5
102
100
AcDbEntity
8
0
100
AcDbSpline
70
0
71
3
72
14
73
10
74
0
42
0.000000001
43
0.0000000001
44
0.0000000001
40
7.3659041407473107e-05
40
7.3659041407473107e-05
40
7.3659041407473107e-05
40
7.3659041407473107e-05
40
0.67175540301819758
40
0.67175540301819758
40
0.67175540301819758
40
1
40
1
40
1
40
1.0000044520012035
40
1.0000044520012035
40
1.0000044520012035
40
1.0000044520012035
10
108.05294766799265
20
193.9598670643731
30
0
10
108.95560085498828
20
189.43679318296427
30
0
10
110.22276271007142
20
183.15778364015191
30
0
10
110.65625852426309
20
176.55458489055883
30
0
10
110.86810388123256
20
173.32766331380415
30
0
10
110.88244323334933
20
170.01393447503204
30
0
10
110.5269410288285
20
166.74138523926052
30
0
10
110.52693673066216
20
166.74134567280845
30
0
10
110.52693243249564
20
166.74130610635459
30
0
10
110.52692813432535
20
166.74126653986605
30
0
0
SPLINE
5
103
100
AcDbEntity
8
0
100
AcDbSpline
70
0
71
3
72
17
73
13
74
0
42
0.000000001
43
0.0000000001
44
0.0000000001
40
-7.0917012931485261e-06
40
-7.0917012931485261e-06
40
-7.0917012931485261e-06
40
-7.0917012931485261e-06
40
0
40
0
40
0
40
0.49827520135484604
40
0.49827520135484604
40
0.49827520135484604
40
1
40
1
40
1
40
1.00000227816997
40
1.00000227816997
40
1.00000227816997
40
1.00000227816997
10
110.5269281343131
20
166.74126653975367
30
0
10
110.52692383417664
20
166.74122697396908
30
0
10
110.5269195340307
20
166.74118740809746
30
0
10
110.52691523389126
20
166.74114784228556
30
0
10
110.13083048611611
20
163.09675099810369
30
0
10
108.78894295433648
20
159.58110467323988
30
0
10
107.01696578846735
20
155.84080344067391
30
0
10
105.2327210892888
20
152.07460781689258
30
0
10
102.96770029780701
20
148.07654398145837
30
0
10
100.48496894454189
20
143.67922257800114
30
0
10
100.48495767092086
20
143.67920261058302
30
0
10
100.48494639729958
20
143.67918264316444
30
0
10
100.48493512385365
20
143.67916267605648
30
0
0
SPLINE
5
104
100
AcDbEntity
8
0
100
AcDbSpline
70
0
71
3
72
17
73
13
74
0
42
0.000000001
43
0.0000000001
44
0.0000000001
40
-1.9794229568149252e-06
40
-1.9794229568149252e-06
40
-1.9794229568149252e-06
40
-1.9794229568149252e-06
40
0
40
0
40
0
40
0.61937576586886811
40
0.61937576586886811
40
0.61937576586886811
40
1
40
1
40
1
40
1.0000034318536806
40
1.0000034318536806
40
1.0000034318536806
40
1.0000034318536806
10
100.48493512329757
20
143.67916267507169
30
0
10
100.48492384997184
20
143.67914270954748
30
0
10
100.48491257629729
20
143.67912274340554
30
0
10
100.48490130265235
20
143.67910277731602
30
0
10
96.957354587394548
20
137.43167226118351
30
0
10
93.230559510519214
20
130.79953607483083
30
0
10
90.650743314750756
20
124.57172918583481
30
0
10
89.06537201379912
20
120.74456261254244
30
0
10
87.923759021491207
20
117.07773652239527
30
0
10
87.457733936891429
20
113.84863382943425
30
0
10
87.457729011363369
20
113.84859970029311
30
0
10
87.457724085835508
20
113.84856557115334
30
0
10
87.457719160291475
20
113.8485314419012
30
0
0
SPLINE
5
105
100
AcDbEntity
8
0
100
AcDbSpline
70
0
71
3
72
14
73
10
74
0
42
0.000000001
43
0.0000000001
44
0.0000000001
40
-3.8030874743562453e-06
40
-3.8030874743562453e-06
40
-3.8030874743562453e-06
40
-3.8030874743562453e-06
40
0
40
0
40
0
40
0.7432457467938125
40
0.7432457467938125
40
0.7432457467938125
40
0.99989315929323808
40
0.99989315929323808
40
0.99989315929323808
40
0.99989315929323808
10
87.457719160268539
20
113.84853144174241
30
0
10
87.457714233272469
20
113.84849731310152
30
0
10
87.457709306238698
20
113.84846318419949
30
0
10
87.457704379206604
20
113.848429055309
30
0
10
86.602362837656131
20
107.92359292774336
30
0
10
87.202385456471148
20
101.87551675282201
30
0
10
88.329527893916264
20
95.309324304191676
30
0
10
88.71873723865383
20
93.041976917161477
30
0
10
89.168382636344376
20
90.717766107610061
30
0
10
89.631055443310416
20
88.327973053342845
30
0
0
SPLINE
5
106
100
AcDbEntity
8
0
100
AcDbSpline
70
0
71
3
72
14
73
10
74
0
42
0.000000001
43
0.0000000001
44
0.0000000001
40
0
40
0
40
0
40
0
40
0.9096696569156052
40
0.9096696569156052
40
0.9096696569156052
40
1
40
1
40
1
40
1.0000119370469653
40
1.0000119370469653
40
1.0000119370469653
40
1.0000119370469653
10
89.631054473979205
20
88.327972865661977
30
0
10
91.282417036206382
20
79.8279678556801
30
0
10
93.102488169977875
20
70.633713610920651
30
0
10
92.474124031136583
20
60.605341695515335
30
0
10
92.411727371193123
20
59.609522753100606
30
0
10
92.324905126217388
20
58.60596303061655
30
0
10
92.211048032014972
20
57.594962181826965
30
0
10
92.211034166326243
20
57.594839060618284
30
0
10
92.211020300637216
20
57.594715939406825
30
0
10
92.211006434959671
20
57.59459281829745
30
0
0
SPLINE
5
107
100
AcDbEntity
8
0
100
AcDbSpline
70
0
71
3
72
20
73
16
74
0
42
0.000000001
43
0.0000000001
44
0.0000000001
40
-5.9740789901205467e-06
40
-5.9740789901205467e-06
40
-5.9740789901205467e-06
40
-5.9740789901205467e-06
40
0
40
0
40
0
40
0.5
40
0.5
40
0.5
40
0.91264515556531056
40
0.91264515556531056
40
0.91264515556531056
40
1
40
1
40
1
40
1.00000736397253
40
1.00000736397253
40
1.00000736397253
40
1.00000736397253
10
92.211006434970102
20
57.594592818389344
30
0
10
92.210992549713083
20
57.594469699285533
30
0
10
92.210978664479185
20
57.594346580386201
30
0
10
92.210964779246211
20
57.594223461495204
30
0
10
91.035906268907709
20
47.17510402807234
30
0
10
89.8405591043215
20
39.847950624868027
30
0
10
87.973761430548691
20
33.882254358316501
30
0
10
86.433111397542817
20
28.9588230303834
30
0
10
84.370851314129979
20
24.966616848831574
30
0
10
81.671326817769
20
21.391648125868187
30
0
10
81.099851449048913
20
20.63484574386635
30
0
10
80.501901826703033
20
19.896236722385275
30
0
10
79.87766782629032
20
19.168135096432522
30
0
10
79.877619983034293
20
19.168079292435173
30
0
10
79.877572139776944
20
19.16802348843628
30
0
10
79.877524296627072
20
19.167967684562743
30
0
0
SPLINE
5
108
100
AcDbEntity
8
0
100
AcDbSpline
70
0
71
3
72
17
73
13
74
0
42
0.000000001
43
0.0000000001
44
0.0000000001
40
-6.9773505075211849e-06
40
-6.9773505075211849e-06
40
-6.9773505075211849e-06
40
-6.9773505075211849e-06
40
0
40
0
40
0
40
0.33361550473027912
40
0.33361550473027912
40
0.33361550473027912
40
0.83564165564913906
40
0.83564165564913906
40
0.83564165564913906
40
0.98313026215083954
40
0.98313026215083954
40
0.98313026215083954
40
0.98313026215083954
10
79.87752429663324
20
19.167967684569923
30
0
10
79.877476448038863
20
19.167911884988499
30
0
10
79.877428599569186
20
19.167856085552518
30
0
10
79.877380751109399
20
19.167800286128042
30
0
10
76.982064608290344
20
15.791370300241541
30
0
10
73.405500120653841
20
13.671257947265975
30
0
10
69.985603437769953
20
12.365396955325338
30
0
10
64.839327128950202
20
10.400331309023731
30
0
10
59.982830412643217
20
10.165097461027202
30
0
10
57.152114671465959
20
10.196218684569342
30
0
10
56.32048803348205
20
10.205361686152941
30
0
10
55.66307654645005
20
10.241223847585816
30
0
10
55.225624920577005
20
10.27301969346226
30
0
0
SPLINE
5
109
100
AcDbEntity
8
0
100
AcDbSpline
70
0
71
3
72
8
73
4
74
0
42
0.000000001
43
0.0000000001
44
0.0000000001
40
0.028306801623013696
40
0.028306801623013696
40
0.028306801623013696
40
0.028306801623013696
40
1
40
1
40
1
40
1
10
55.225624920577005
20
10.273019693462127
30
0
10
53.502418283120036
20
10.314936746324936
30
0
10
48.490053233748618
20
10.593808383056677
30
0
10
42.609352720257363
20
12.734208326601442
30
0
0
SPLINE
5
110
100
AcDbEntity
8
0
100
AcDbSpline
70
0
71
3
72
14
73
10
74
0
42
0.000000001
43
0.0000000001
44
0.0000000001
40
0
40
0
40
0
40
0
40
0.5499313837533325
40
0.5499313837533325
40
0.5499313837533325
40
1
40
1
40
1
40
1.0000042786038921
40
1.0000042786038921
40
1.0000042786038921
40
1.0000042786038921
10
42.609352720257334
20
12.734208326601449
30
0
10
36.156119105770955
20
15.08299327704059
30
0
10
30.819029827034832
20
19.010668011669107
30
0
10
27.149236229272177
20
24.203264503358493
30
0
10
24.145845305875156
20
28.452930528584282
30
0
10
22.28059749121276
20
33.508093576036373
30
0
10
21.642551951607231
20
39.028821449042297
30
0
10
21.64254665444404
20
39.028867283069289
30
0
10
21.642541357280443
20
39.02891311709979
30
0
10
21.642536060128087
20
39.028958951033054
30
0
0
SPLINE
5
111
100
AcDbEntity
8
0
100
AcDbSpline
70
0
71
3
72
14
73
10
74
0
42
0.000000001
43
0.0000000001
44
0.0000000001
40
-5.6325380329049681e-06
40
-5.6325380329049681e-06
40
-5.6325380329049681e-06
40
-5.6325380329049681e-06
40
0
40
0
40
0
40
1
40
1
40
1
40
1.0000069611263036
40
1.0000069611263036
40
1.0000069611263036
40
1.0000069611263036
10
21.642536060117461
20
39.028958951125013
30
0
10
21.642530765680419
20
39.029004785335992
30
0
10
21.642525471245214
20
39.029050619530992
30
0
10
21.64252017681072
20
39.02909645371988
30
0
10
20.66336039144959
20
47.505732550464941
30
0
10
20.802349735306002
20
54.483695126049447
30
0
10
20.927846347812302
20
60.954136532815646
30
0
10
20.927847221416286
20
60.954181574695959
30
0
10
20.927848095020181
20
60.95422661657166
30
0
10
20.927848968627934
20
60.954271658646284
30
0
0
SPLINE
5
112
100
AcDbEntity
8
0
100
AcDbSpline
70
0
71
3
72
17
73
13
74
0
42
0.000000001
43
0.0000000001
44
0.0000000001
40
-4.4874475869166583e-06
40
-4.4874475869166583e-06
40
-4.4874475869166583e-06
40
-4.4874475869166583e-06
40
0
40
0
40
0
40
0.91060562295867298
40
0.91060562295867298
40
0.91060562295867298
40
1
40
1
40
1
40
1.0000015656923826
40
1.0000015656923826
40
1.0000015656923826
40
1.0000015656923826
10
20.927848968627409
20
60.954271658618715
30
0
10
20.927849844830874
20
60.954316700345998
30
0
10
20.92785072103765
20
60.954361742243101
30
0
10
20.927851597244313
20
60.95440678413447
30
0
10
21.105650850896808
20
70.094276424134506
30
0
10
21.293661012622621
20
78.956150488742097
30
0
10
18.618129490490169
20
93.154499555307808
30
0
10
18.355471905642023
20
94.548354960787293
30
0
10
18.064866280202505
20
95.993101499246734
30
0
10
17.743419293110453
20
97.493537446550505
30
0
10
17.743413525190466
20
97.493564369790846
30
0
10
17.743407757271683
20
97.493591293025588
30
0
10
17.743401989324767
20
97.493618216391553
30
0
0
SPLINE
5
113
100
AcDbEntity
8
0
100
AcDbSpline
70
0
71
3
72
14
73
10
74
0
42
0.000000001
43
0.0000000001
44
0.0000000001
40
-4.1422493314464908e-06
40
-4.1422493314464908e-06
40
-4.1422493314464908e-06
40
-4.1422493314464908e-06
40
0
40
0
40
0
40
1
40
1
40
1
40
1.0000127868478634
40
1.0000127868478634
40
1.0000127868478634
40
1.0000127868478634
10
17.743401989403168
20
97.493618216025553
30
0
10
17.743396222359703
20
97.493645139814404
30
0
10
17.743390455361364
20
97.49367206339258
30
0
10
17.743384688359583
20
97.493698986986857
30
0
10
16.35729112321766
20
103.96476005773735
30
0
10
15.180068925041855
20
109.16391054832604
30
0
10
14.136373077041021
20
113.77276995523306
30
0
10
14.136359731233842
20
113.77282888902019
30
0
10
14.136346385427121
20
113.77288782280533
30
0
10
14.136333039625777
20
113.77294675656671
30
0
0
SPLINE
5
114
100
AcDbEntity
8
0
100
AcDbSpline
70
0
71
3
72
17
73
13
74
0
42
0.000000001
43
0.0000000001
44
0.0000000001
40
-3.7376009245825147e-06
40
-3.7376009245825147e-06
40
-3.7376009245825147e-06
40
-3.7376009245825147e-06
40
0
40
0
40
0
40
0.55445654932814248
40
0.55445654932814248
40
0.55445654932814248
40
1
40
1
40
1
40
1.0000057349374878
40
1.0000057349374878
40
1.0000057349374878
40
1.0000057349374878
10
14.136333039628482
20
113.77294675655475
30
0
10
14.136319698367078
20
113.77300569146321
30
0
10
14.136306357113124
20
113.77306462633871
30
0
10
14.136293015859085
20
113.77312356121462
30
0
10
12.157154609225739
20
122.51595058784264
30
0
10
10.738507694082147
20
128.76798023903893
30
0
10
9.7536644675298056
20
135.72445165050146
30
0
10
8.9622761250877581
20
141.31444834351345
30
0
10
8.463022010936939
20
147.30141616159068
30
0
10
8.164008310714749
20
155.29145608812854
30
0
10
8.164004513200231
20
155.29155756271851
30
0
10
8.1640007156857575
20
155.29165903730731
30
0
10
8.1639969181736909
20
155.2917605118318
30
0
0
SPLINE
5
115
100
AcDbEntity
8
0
100
AcDbSpline
70
0
71
3
72
17
73
13
74
0
42
0.000000001
43
0.0000000001
44
0.0000000001
40
-6.2448753494843406e-06
40
-6.2448753494843406e-06
40
-6.2448753494843406e-06
40
-6.2448753494843406e-06
40
0
40
0
40
0
40
0.5
40
0.5
40
0.5
40
0.79646430465200502
40
0.79646430465200502
40
0.79646430465200502
40
1
40
1
40
1
40
1
10
8.1639969181688148
20
155.29176051196234
30
0
10
8.163993133867244
20
155.2918619869848
30
0
10
8.1639893495632005
20
155.29196346207362
30
0
10
8.1639855652591891
20
155.2920649371616
30
0
10
7.8582996842734465
20
163.48894911211312
30
0
10
7.6925676870775961
20
172.95790783094392
30
0
10
8.0212129016650024
20
181.62548263415314
30
0
10
8.2160760517047322
20
186.76473570825846
30
0
10
8.5805443908053931
20
191.61648788962466
30
0
10
9.2233890426449765
20
195.83321567177254
30
0
10
9.6647299769827306
20
198.72818349004029
30
0
10
10.223606302569664
20
201.31695253129877
30
0
10
11.048783766739554
20
203.60699343737011
30
0
0
SPLINE
5
116
100
AcDbEntity
8
0
100
AcDbSpline
70
0
71
3
72
14
73
10
74
0
42
0.000000001
43
0.0000000001
44
0.0000000001
40
1.7038641869471672e-05
40
1.7038641869471672e-05
40
1.7038641869471672e-05
40
1.7038641869471672e-05
40
0.67258744765636613
40
0.67258744765636613
40
0.67258744765636613
40
1
40
1
40
1
40
1.0003970885957889
40
1.0003970885957889
40
1.0003970885957889
40
1.0003970885957889
10
11.048783754787133
20
203.60699344160426
30
0
10
12.705711489851677
20
208.20629561778264
30
0
10
15.024990088488185
20
211.3784253286118
30
0
10
17.418709602085087
20
213.41062468322261
30
0
10
18.58399104330983
20
214.39991527443249
30
0
10
19.755055485373578
20
215.11552531446296
30
0
10
20.826061802279078
20
215.61740197808686
30
0
10
20.826930530288742
20
215.61780906654951
30
0
10
20.827799258300111
20
215.61821615501302
30
0
10
20.828667986285879
20
215.61862324346453
30
0
0
SPLINE
5
117
100
AcDbEntity
8
0
100
AcDbSpline
70
0
71
3
72
11
73
7
74
0
42
0.000000001
43
0.0000000001
44
0.0000000001
40
-0.00068951871761746748
40
-0.00068951871761746748
40
-0.00068951871761746748
40
-0.00068951871761746748
40
0
40
0
40
0
40
0.47314791366132658
40
0.47314791366132658
40
0.47314791366132658
40
0.47314791366132658
10
20.828667986335972
20
215.61862324348937
30
0
10
20.829537215011321
20
215.61902926341841
30
0
10
20.83040644370606
20
215.61943528335655
30
0
10
20.831275672398334
20
215.6198413032935
30
0
10
21.712866256867795
20
216.03163552581205
30
0
10
22.62883080042311
20
216.3511025295922
30
0
10
23.56615906575934
20
216.57013617937724
30
0
0
SPLINE
5
118
100
AcDbEntity
8
0
100
AcDbSpline
70
0
71
3
72
11
73
7
74
0
42
0.000000001
43
0.0000000001
44
0.0000000001
40
0.21024590975491605
40
0.21024590975491605
40
0.21024590975491605
40
0.21024590975491605
40
0.61428625257188851
40
0.61428625257188851
40
0.61428625257188851
40
0.99994384406142167
40
0.99994384406142167
40
0.99994384406142167
40
0.99994384406142167
10
23.56615906575929
20
216.57013617937724
30
0
10
24.525940265850132
20
218.23722976722394
30
0
10
25.794073921348897
20
219.78492025844602
30
0
10
27.397183907772483
20
221.05456873835192
30
0
10
28.927356691872411
20
222.26645161961324
30
0
10
30.75222677298008
20
223.20624855462052
30
0
10
32.771425388086151
20
223.78316130026195
30
0
0
SPLINE
5
119
100
AcDbEntity
8
0
100
AcDbSpline
70
0
71
3
72
8
73
4
74
0
42
0.000000001
43
0.0000000001
44
0.0000000001
40
0
40
0
40
0
40
0
40
0.4498375732507795
40
0.4498375732507795
40
0.4498375732507795
40
0.4498375732507795
10
32.771425405762812
20
223.78316123761988
30
0
10
33.813826943472833
20
224.08114776629594
30
0
10
34.853333758733946
20
224.30842626150286
30
0
10
35.890201578915011
20
224.45837409613858
30
0
0
SPLINE
5
120
100
AcDbEntity
8
0
100
AcDbSpline
70
0
71
3
72
14
73
10
74
0
42
0.000000001
43
0.0000000001
44
0.0000000001
40
0.38026771163671452
40
0.38026771163671452
40
0.38026771163671452
40
0.38026771163671452
40
0.89747909376112456
40
0.89747909376112456
40
0.89747909376112456
40
1
40
1
40
1
40
1.0000360157868939
40
1.0000360157868939
40
1.0000360157868939
40
1.0000360157868939
10
35.890201578915033
20
224.45837409613856
30
0
10
36.499388169755846
20
226.06261074235738
30
0
10
37.322930643620708
20
227.68228502804914
30
0
10
38.466058147816597
20
229.20075179830258
30
0
10
38.692647259594025
20
229.5017401267894
30
0
10
38.93170125234856
20
229.79835984377195
30
0
10
39.183787622694297
20
230.08916345292698
30
0
10
39.183850709618298
20
230.08923622919471
30
0
10
39.183913796546896
20
230.08930900546778
30
0
10
39.183976883402387
20
230.08938178165653
30
0
0
SPLINE
5
121
100
AcDbEntity
8
0
100
AcDbSpline
70
0
71
3
72
14
73
10
74
0
42
0.000000001
43
0.0000000001
44
0.0000000001
40
-3.1673486857170064e-05
40
-3.1673486857170064e-05
40
-3.1673486857170064e-05
40
-3.1673486857170064e-05
40
0
40
0
40
0
40
0.79911133689480962
40
0.79911133689480962
40
0.79911133689480962
40
1
40
1
40
1
40
1
10
39.183976883806082
20
230.08938178212219
30
0
10
39.184039979554811
20
230.08945455041362
30
0
10
39.184103075625984
20
230.08952731907695
30
0
10
39.184166171691956
20
230.08960008773425
30
0
10
41.4069173704099
20
232.65309779157707
30
0
10
44.41114568282778
20
234.43321456423377
30
0
10
47.704915619996207
20
235.11720889274571
30
0
10
48.532936708803419
20
235.28915828187618
30
0
10
49.377594981242083
20
235.39493992524311
30
0
10
50.230934299062262
20
235.43594340812928
30
0
0
SPLINE
5
122
100
AcDbEntity
8
0
100
AcDbSpline
70
0
71
3
72
8
73
4
74
0
42
0.000000001
43
0.0000000001
44
0.0000000001
40
2.2002117166955971e-05
40
2.2002117166955971e-05
40
2.2002117166955971e-05
40
2.2002117166955971e-05
40
0.32684998612108035
40
0.32684998612108035
40
0.32684998612108035
40
0.32684998612108035
10
50.230934299002108
20
235.43594340941721
30
0
10
50.834856483469963
20
235.46497503319446
30
0
10
51.432742484046912
20
235.47139681100987
30
0
10
52.024709555958253
20
235.45397482775223
30
0
0
SPLINE
5
123
100
AcDbEntity
8
0
100
AcDbSpline
70
0
71
3
72
11
73
7
74
0
42
0.000000001
43
0.0000000001
44
0.0000000001
40
0.3990928426265547
40
0.3990928426265547
40
0.3990928426265547
40
0.3990928426265547
40
1
40
1
40
1
40
1.0000220834010256
40
1.0000220834010256
40
1.0000220834010256
40
1.0000220834010256
10
52.024709555958225
20
235.45397482775218
30
0
10
53.017222340037677
20
236.96217562454021
30
0
10
54.252018347710553
20
238.41173145946397
30
0
10
55.798578757951098
20
239.65452419948195
30
0
10
55.798619452170364
20
239.65455690074592
30
0
10
55.798660146369123
20
239.65458960199345
30
0
10
55.798700840193177
20
239.65462230293986
30
0
0
SPLINE
5
124
100
AcDbEntity
8
0
100
AcDbSpline
70
0
71
3
72
14
73
10
74
0
42
0.000000001
43
0.0000000001
44
0.0000000001
40
-1.672657413722864e-05
40
-1.672657413722864e-05
40
-1.672657413722864e-05
40
-1.672657413722864e-05
40
0
40
0
40
0
40
0.81355355759120951
40
0.81355355759120951
40
0.81355355759120951
40
1
40
1
40
1
40
1
10
55.798700839853439
20
239.65462230266681
30
0
10
55.798741535995163
20
239.6546550009933
30
0
10
55.798782231464521
20
239.65468769877955
30
0
10
55.798822926940247
20
239.65472039657089
30
0
10
58.549546490845799
20
241.86485760721854
30
0
10
61.965583334887668
20
243.10189688947025
30
0
10
65.476092121674469
20
243.17921063625244
30
0
10
66.280614292629167
20
243.19692904323657
30
0
10
67.089769678502449
20
243.15661737893203
30
0
10
67.898100070544828
20
243.06045414366974
30
0
0
SPLINE
5
125
100
AcDbEntity
8
0
100
AcDbSpline
70
0
71
3
72
8
73
4
74
0
42
0.000000001
43
0.0000000001
44
0.0000000001
40
0.00021319727699184608
40
0.00021319727699184608
40
0.00021319727699184608
40
0.00021319727699184608
40
0.53075550343212707
40
0.53075550343212707
40
0.53075550343212707
40
0.53075550343212707
10
67.89810011798707
20
243.06045453879307
30
0
10
69.673360409763802
20
242.84992649228934
30
0
10
71.36149476876767
20
242.44717148831413
30
0
10
72.931563707901987
20
241.87671811011961
30
0
0
SPLINE
5
126
100
AcDbEntity
8
0
100
AcDbSpline
70
0
71
3
72
8
73
4
74
0
42
0.000000001
43
0.0000000001
44
0.0000000001
40
0.46312433868868513
40
0.46312433868868513
40
0.46312433868868513
40
0.46312433868868513
40
0.99987534822908186
40
0.99987534822908186
40
0.99987534822908186
40
0.99987534822908186
10
72.931563707902029
20
241.87671811011953
30
0
10
74.076990941248937
20
243.08012770376035
30
0
10
75.408673147375737
20
244.21165148556892
30
0
10
76.946695965829321
20
245.17845946006668
30
0
0
SPLINE
5
127
100
AcDbEntity
8
0
100
AcDbSpline
70
0
71
3
72
11
73
7
74
0
42
0.000000001
43
0.0000000001
44
0.0000000001
40
0
40
0
40
0
40
0
40
0.6113944114814317
40
0.6113944114814317
40
0.6113944114814317
40
0.99987823610301363
40
0.99987823610301363
40
0.99987823610301363
40
0.99987823610301363
10
76.946696036078947
20
245.17845934964424
30
0
10
79.130557602371354
20
246.55187432461588
30
0
10
82.253997091449122
20
247.88276511652143
30
0
10
86.155106152664388
20
248.12271616539539
30
0
10
88.633895196049096
20
248.27518255932702
30
0
10
91.403207103394081
20
247.98305310076105
30
0
10
94.355175677203476
20
247.07474810626917
30
0
0
SPLINE
5
128
100
AcDbEntity
8
0
100
AcDbSpline
70
0
71
3
72
20
73
16
74
0
42
0.000000001
43
0.0000000001
44
0.0000000001
40
0
40
0
40
0
40
0
40
0.25185281055215047
40
0.25185281055215047
40
0.25185281055215047
40
0.51509109775136075
40
0.51509109775136075
40
0.51509109775136075
40
0.83920964960447042
40
0.83920964960447042
40
0.83920964960447042
40
1
40
1
40
1
40
1.0000275200133408
40
1.0000275200133408
40
1.0000275200133408
40
1.0000275200133408
10
94.355175456797284
20
247.07474739342032
30
0
10
99.346125632454815
20
245.54185517279495
30
0
10
103.22686702081653
20
243.04583291553385
30
0
10
105.98206269660749
20
239.99971279565551
30
0
10
108.86181213837003
20
236.81588712699659
30
0
10
110.46687290315995
20
233.12283696393055
30
0
10
111.28127078534646
20
229.62287456053491
30
0
10
112.28401801112055
20
225.31346061547893
30
0
10
112.16134244103678
20
221.24564739346795
30
0
10
111.86272970694117
20
218.1044230688606
30
0
10
111.71459241003767
20
216.54610881336106
30
0
10
111.51691475626257
20
215.20804276410337
30
0
10
111.37521992115924
20
214.2376381803096
30
0
10
111.37519558078569
20
214.23747148397189
30
0
10
111.37517124041268
20
214.2373047876381
30
0
10
111.37514690006884
20
214.23713809150414
30
0
0
SPLINE
5
129
100
AcDbEntity
8
0
100
AcDbSpline
70
0
71
3
72
14
73
10
74
0
42
0.000000001
43
0.0000000001
44
0.0000000001
40
-5.6748124864810839e-05
40
-5.6748124864810839e-05
40
-5.6748124864810839e-05
40
-5.6748124864810839e-05
40
0
40
0
40
0
40
1
40
1
40
1
40
1.0001165718456269
40
1.0001165718456269
40
1.0001165718456269
40
1.0001165718456269
10
111.37514690005582
20
214.23713809141444
30
0
10
111.37512252364898
20
214.23697140012663
30
0
10
111.37509814725563
20
214.2368047089314
30
0
10
111.37507377086041
20
214.23663801772335
30
0
10
110.86489868581212
20
210.74794739891061
30
0
10
109.80404305111907
20
207.68039781313578
30
0
10
108.8934730847562
20
204.97565305070307
30
0
10
108.89336684041234
20
204.97533746393532
30
0
10
108.89326059606843
20
204.97502187716725
30
0
10
108.89315435174161
20
204.97470629045009
30
0
0
SPLINE
5
130
100
AcDbEntity
8
0
100
AcDbSpline
70
0
71
3
72
11
73
7
74
0
42
0.000000001
43
0.0000000001
44
0.0000000001
40
0
40
0
40
0
40
0
40
0.62651324590444957
40
0.62651324590444957
40
0.62651324590444957
40
0.99995457019381762
40
0.99995457019381762
40
0.99995457019381762
40
0.99995457019381762
10
102.24069784225719
20
207.21640729356437
30
0
10
101.52924866266306
20
205.10610801224377
30
0
10
100.80668630170159
20
203.00461671226878
30
0
10
100.43114349737897
20
200.96005203072735
30
0
10
100.20729635114486
20
199.74136280546151
30
0
10
100.09690246272747
20
198.53090623145167
30
0
10
100.28576378376827
20
197.29699485249694
30
0
0
SPLINE
5
131
100
AcDbEntity
8
0
100
AcDbSpline
70
0
71
3
72
11
73
7
74
0
42
0.000000001
43
0.0000000001
44
0.0000000001
40
0
40
0
40
0
40
0
40
1
40
1
40
1
40
1.0000674553953277
40
1.0000674553953277
40
1.0000674553953277
40
1.0000674553953277
10
100.28576381393773
20
197.29699485674064
30
0
10
100.48070099167838
20
196.02221342599023
30
0
10
100.80221860537168
20
194.4254909708518
30
0
10
101.16825155816377
20
192.58823922523146
30
0
10
101.16827626387672
20
192.58811521832473
30
0
10
101.16830096958935
20
192.58799121141951
30
0
10
101.16832567530734
20
192.58786720448754
30
0
0
SPLINE
5
132
100
AcDbEntity
8
0
100
AcDbSpline
70
0
71
3
72
14
73
10
74
0
42
0.000000001
43
0.0000000001
44
0.0000000001
40
-1.8413519620739186e-05
40
-1.8413519620739186e-05
40
-1.8413519620739186e-05
40
-1.8413519620739186e-05
40
0
40
0
40
0
40
0.79885630481076064
40
0.79885630481076064
40
0.79885630481076064
40
1
40
1
40
1
40
1
10
101.16832567525688
20
192.58786720474021
30
0
10
101.16835042121629
20
192.58774320563566
30
0
10
101.16837516713206
20
192.58761920674954
30
0
10
101.16839991304892
20
192.58749520785798
30
0
10
102.24204121843954
20
187.20760435184391
30
0
10
103.71303483786926
20
179.76108271234378
30
0
10
103.78310786955232
20
172.70450981162881
30
0
10
103.80075152892005
20
170.92773826951986
30
0
10
103.73036557236503
20
169.17828188271056
30
0
10
103.54799887808228
20
167.49951877402731
30
0
0
SPLINE
5
133
100
AcDbEntity
8
0
100
AcDbSpline
70
0
71
3
72
11
73
7
74
0
42
0.000000001
43
0.0000000001
44
0.0000000001
40
8.3972312607152585e-06
40
8.3972312607152585e-06
40
8.3972312607152585e-06
40
8.3972312607152585e-06
40
0.62038577979486609
40
0.62038577979486609
40
0.62038577979486609
40
0.99999772190743408
40
0.99999772190743408
40
0.99999772190743408
40
0.99999772190743408
10
103.54799887449749
20
167.49951877442587
30
0
10
103.23027668068336
20
164.57641315520084
30
0
10
101.72122725803624
20
160.78348328969855
30
0
10
99.392295627681747
20
156.26471847467585
30
0
10
97.96721101935367
20
153.49966427445307
30
0
10
96.250590412574411
20
150.45789012518037
30
0
10
94.372037805874641
20
147.13066762299951
30
0
0
SPLINE
5
134
100
AcDbEntity
8
0
100
AcDbSpline
70
0
71
3
72
11
73
7
74
0
42
0.000000001
43
0.0000000001
44
0.0000000001
40
0
40
0
40
0
40
0
40
0.73656606763151766
40
0.73656606763151766
40
0.73656606763151766
40
0.99999680300054838
40
0.99999680300054838
40
0.99999680300054838
40
0.99999680300054838
10
94.372037806736728
20
147.13066762246996
30
0
10
90.176883962637874
20
139.70087738549546
30
0
10
85.503045362406652
20
131.4602194894444
30
0
10
82.689971624308583
20
123.40580907031992
30
0
10
81.683883893635127
20
120.52517235229044
30
0
10
80.915602785633865
20
117.6636962479127
30
0
10
80.509733659337343
20
114.85147586665289
30
0
0
SPLINE
5
135
100
AcDbEntity
8
0
100
AcDbSpline
70
0
71
3
72
14
73
10
74
0
42
0.000000001
43
0.0000000001
44
0.0000000001
40
0
40
0
40
0
40
0
40
0.93239537515686799
40
0.93239537515686799
40
0.93239537515686799
40
1
40
1
40
1
40
1.0000267108253833
40
1.0000267108253833
40
1.0000267108253833
40
1.0000267108253833
10
80.509733661445338
20
114.85147586634625
30
0
10
79.234314581502787
20
106.01681897720191
30
0
10
80.713686012233623
20
97.526081135495531
30
0
10
82.375605630947163
20
88.875599303899293
30
0
10
82.49610542678073
20
88.248384074695707
30
0
10
82.617738998361261
20
87.620152995083316
30
0
10
82.739610011577525
20
86.990666393395628
30
0
10
82.739658164102536
20
86.990417676588194
30
0
10
82.739706316627689
20
86.990168959779979
30
0
10
82.739754469156637
20
86.989920242952152
30
0
0
SPLINE
5
136
100
AcDbEntity
8
0
100
AcDbSpline
70
0
71
3
72
11
73
7
74
0
42
0.000000001
43
0.0000000001
44
0.0000000001
40
-2.662033358542755e-05
40
-2.662033358542755e-05
40
-2.662033358542755e-05
40
-2.662033358542755e-05
40
0
40
0
40
0
40
1
40
1
40
1
40
1
10
82.73975446915199
20
86.989920242976069
30
0
10
82.739802783235049
20
86.989671557461747
30
0
10
82.739851097316674
20
86.989422871954758
30
0
10
82.739899411397943
20
86.989174186449674
30
0
10
84.554625141522621
20
77.648295235555338
30
0
10
86.34727142196374
20
68.255761043047031
30
0
10
85.235145841595056
20
58.380575718939703
30
0
0
SPLINE
5
137
100
AcDbEntity
8
0
100
AcDbSpline
70
0
71
3
72
11
73
7
74
0
42
0.000000001
43
0.0000000001
44
0.0000000001
40
6.0075368209580762e-06
40
6.0075368209580762e-06
40
6.0075368209580762e-06
40
6.0075368209580762e-06
40
0.58415100418117027
40
0.58415100418117027
40
0.58415100418117027
40
0.99999224885276872
40
0.99999224885276872
40
0.99999224885276872
40
0.99999224885276872
10
85.235145812094828
20
58.380575722260147
30
0
10
83.885003529323129
20
46.409106037086133
30
0
10
82.499594733945031
20
38.939367207836469
30
0
10
80.413947740053317
20
33.494627983035059
30
0
10
78.929216985073396
20
29.618626050021511
30
0
10
77.115082194271281
20
26.731309525865626
30
0
10
74.548361319115543
20
23.737477741592961
30
0
0
SPLINE
5
138
100
AcDbEntity
8
0
100
AcDbSpline
70
0
71
3
72
14
73
10
74
0
42
0.000000001
43
0.0000000001
44
0.0000000001
40
0
40
0
40
0
40
0
40
0.41482406102102704
40
0.41482406102102704
40
0.41482406102102704
40
1
40
1
40
1
40
1.0114475352070575
40
1.0114475352070575
40
1.0114475352070575
40
1.0114475352070575
10
74.548361327405701
20
23.737477734459475
30
0
10
72.081306952088809
20
20.860473649675132
30
0
10
68.808759279762171
20
19.215766646191792
30
0
10
65.58588113953428
20
18.293598381990144
30
0
10
61.039494082619889
20
16.992731989205243
30
0
10
56.678362150929679
20
17.199787471356611
30
0
10
55.636229826401511
20
17.281991623600948
30
0
10
55.612638330917321
20
17.28385253784457
30
0
10
55.589046835433138
20
17.285713452088196
30
0
10
55.565455339948919
20
17.287574366331814
30
0
0
SPLINE
5
139
100
AcDbEntity
8
0
100
AcDbSpline
70
0
71
3
72
11
73
7
74
0
42
0.000000001
43
0.0000000001
44
0.0000000001
40
-0.019215971946086888
40
-0.019215971946086888
40
-0.019215971946086888
40
-0.019215971946086888
40
0
40
0
40
0
40
1
40
1
40
1
40
1
10
55.565455339948926
20
17.287574366332386
30
0
10
55.541794421230286
20
17.288001667966654
30
0
10
55.518133502511617
20
17.288428969600929
30
0
10
55.494472583792955
20
17.288856271235204
30
0
10
54.434561739462453
20
17.307997608955482
30
0
10
49.982116814683131
20
17.521269614744771
30
0
10
45.010334126403528
20
19.330850524518528
30
0
0
SPLINE
5
140
100
AcDbEntity
8
0
100
AcDbSpline
70
0
71
3
72
11
73
7
74
0
42
0.000000001
43
0.0000000001
44
0.0000000001
40
0
40
0
40
0
40
0
40
0.66203519887052587
40
0.66203519887052587
40
0.66203519887052587
40
0.99999538678453137
40
0.99999538678453137
40
0.99999538678453137
40
0.99999538678453137
10
45.010334126403535
20
19.330850524518524
30
0
10
38.649735665059339
20
21.645919036567214
30
0
10
34.074946623532469
20
25.569045931518666
30
0
10
31.329107761145664
20
30.791301561649963
30
0
10
29.92739344218343
20
33.457193793823123
30
0
10
29.004228941129135
20
36.476890740299027
30
0
10
28.616149084010317
20
39.834639703113261
30
0
0
SPLINE
5
141
100
AcDbEntity
8
0
100
AcDbSpline
70
0
71
3
72
8
73
4
74
0
42
0.000000001
43
0.0000000001
44
0.0000000001
40
0
40
0
40
0
40
0
40
0.9999930388929309
40
0.9999930388929309
40
0.9999930388929309
40
0.9999930388929309
10
28.616149079636518
20
39.834639702510813
30
0
10
27.695774936799317
20
47.802365499998743
30
0
10
27.821026659519941
20
54.347406503611467
30
0
10
27.946523706131778
20
60.817871503996003
30
0
0
SPLINE
5
142
100
AcDbEntity
8
0
100
AcDbSpline
70
0
71
3
72
8
73
4
74
0
42
0.000000001
43
0.0000000001
44
0.0000000001
40
0
40
0
40
0
40
0
40
0.99999845280039756
40
0.99999845280039756
40
0.99999845280039756
40
0.99999845280039756
10
27.946523702228895
20
60.817871504037164
30
0
10
28.141782491947342
20
70.855258317700645
30
0
10
28.335655259151284
20
81.56270902994514
30
0
10
24.607679833638247
20
98.964022821634003
30
0
0
SPLINE
5
143
100
AcDbEntity
8
0
100
AcDbSpline
70
0
71
3
72
8
73
4
74
0
42
0.000000001
43
0.0000000001
44
0.0000000001
40
0
40
0
40
0
40
0
40
0.99998721328341089
40
0.99998721328341089
40
0.99998721328341089
40
0.99998721328341089
10
24.607679832180168
20
98.964022821562452
30
0
10
23.212390717458646
20
105.47801386789698
30
0
10
22.026767278004794
20
110.71411108056307
30
0
10
20.983054714707411
20
115.32304431330736
30
0
0
SPLINE
5
144
100
AcDbEntity
8
0
100
AcDbSpline
70
0
71
3
72
11
73
7
74
0
42
0.000000001
43
0.0000000001
44
0.0000000001
40
0
40
0
40
0
40
0
40
0.6575985818828638
40
0.6575985818828638
40
0.6575985818828638
40
0.99999422602396282
40
0.99999422602396282
40
0.99999422602396282
40
0.99999422602396282
10
20.983054707887305
20
115.32304431163215
30
0
10
18.635789752179935
20
125.69206722818713
30
0
10
17.15527232814576
20
132.23901735047338
30
0
10
16.225133300652452
20
140.47978300540575
30
0
10
15.740832451725023
20
144.77054996016022
30
0
10
15.404305503425482
20
149.53627732069006
30
0
10
15.17910909263097
20
155.55367949336983
30
0
0
SPLINE
5
145
100
AcDbEntity
8
0
100
AcDbSpline
70
0
71
3
72
17
73
13
74
0
42
0.000000001
43
0.0000000001
44
0.0000000001
40
0
40
0
40
0
40
0
40
0.5
40
0.5
40
0.5
40
0.85255746043649872
40
0.85255746043649872
40
0.85255746043649872
40
1
40
1
40
1
40
1.0000032233242351
40
1.0000032233242351
40
1.0000032233242351
40
1.0000032233242351
10
15.179109072680079
20
155.553679492626
30
0
10
14.87746286029347
20
163.64224104729334
30
0
10
14.718324398208068
20
172.97669376515557
30
0
10
15.036172112021177
20
181.35949903120161
30
0
10
15.260291277596171
20
187.2703401030634
30
0
10
15.728135312200813
20
192.7179084458997
30
0
10
16.515948594143421
20
196.84175822418604
30
0
10
16.845418833824812
20
198.56638740473471
30
0
10
17.231822672235158
20
200.05806890826133
30
0
10
17.653112077768821
20
201.22723555890065
30
0
10
17.653122573807959
20
201.22726468761542
30
0
10
17.653133069848632
20
201.22729381633445
30
0
10
17.653143565805909
20
201.22732294482205
30
0
0
SPLINE
5
146
100
AcDbEntity
8
0
100
AcDbSpline
70
0
71
3
72
14
73
10
74
0
42
0.000000001
43
0.0000000001
44
0.0000000001
40
-4.9544493981022447e-06
40
-4.9544493981022447e-06
40
-4.9544493981022447e-06
40
-4.9544493981022447e-06
40
0
40
0
40
0
40
0.84834769472895688
40
0.84834769472895688
40
0.84834769472895688
40
0.99947242734360808
40
0.99947242734360808
40
0.99947242734360808
40
0.99947242734360808
10
17.65314356590239
20
201.22732294508978
30
0
10
17.653154059593696
20
201.22735207453982
30
0
10
17.653164553293223
20
201.22738120401266
30
0
10
17.653175046989837
20
201.22741033347739
30
0
10
19.303460333496425
20
205.8084391990227
30
0
10
21.415137440814252
20
207.83147495232069
30
0
10
23.00259262359781
20
208.82289237971059
30
0
10
23.285382028845806
20
208.99950356702766
30
0
10
23.553322440738647
20
209.14274485596513
30
0
10
23.802215021454849
20
209.25949914173776
30
0
0
SPLINE
5
147
100
AcDbEntity
8
0
100
AcDbSpline
70
0
71
3
72
11
73
7
74
0
42
0.000000001
43
0.0000000001
44
0.0000000001
40
0
40
0
40
0
40
0
40
1
40
1
40
1
40
1.4236601928595456
40
1.4236601928595456
40
1.4236601928595456
40
1.4236601928595456
10
23.80221402421099
20
209.25950127231019
30
0
10
24.761537963864871
20
209.70760503252777
30
0
10
25.728040515081105
20
209.9115753931323
30
0
10
26.64699424178071
20
209.89776941644226
30
0
10
27.194040722571664
20
209.88955081876674
30
0
10
27.741087203362614
20
209.88133222109124
30
0
10
28.288133684153575
20
209.87311362341575
30
0
0
SPLINE
5
148
100
AcDbEntity
8
0
100
AcDbSpline
70
0
71
3
72
17
73
13
74
0
42
0.000000001
43
0.0000000001
44
0.0000000001
40
-0.1539068863107601
40
-0.1539068863107601
40
-0.1539068863107601
40
-0.1539068863107601
40
0
40
0
40
0
40
0.69008120840772269
40
0.69008120840772269
40
0.69008120840772269
40
1
40
1
40
1
40
1.0000193921878469
40
1.0000193921878469
40
1.0000193921878469
40
1.0000193921878469
10
28.288133684153568
20
209.87311362341561
30
0
10
28.482125361802506
20
210.38467459387419
30
0
10
28.676117039451444
20
210.89623556433281
30
0
10
28.87010871710039
20
211.4077965347914
30
0
10
29.607007798726212
20
213.35101808890738
30
0
10
30.695232272322315
20
214.86708125580151
30
0
10
32.249666306026143
20
215.91232115281281
30
0
10
32.947770111007266
20
216.38174342059665
30
0
10
33.749701251688805
20
216.76181638288708
30
0
10
34.700469645204073
20
217.03340658270758
30
0
10
34.700543151108562
20
217.0334275799172
30
0
10
34.700616657014365
20
217.03344857712722
30
0
10
34.700690162977381
20
217.03346957435357
30
0
0
SPLINE
5
149
100
AcDbEntity
8
0
100
AcDbSpline
70
0
71
3
72
14
73
10
74
0
42
0.000000001
43
0.0000000001
44
0.0000000001
40
-3.8623136713056402e-05
40
-3.8623136713056402e-05
40
-3.8623136713056402e-05
40
-3.8623136713056402e-05
40
0
40
0
40
0
40
1
40
1
40
1
40
1.3935957771476621
40
1.3935957771476621
40
1.3935957771476621
40
1.3935957771476621
10
34.700690163024113
20
217.03346957436702
30
0
10
34.700763664772921
20
217.03349058597351
30
0
10
34.700837166624368
20
217.03351159760942
30
0
10
34.700910668475657
20
217.03353260924524
30
0
10
36.396847060741884
20
217.51834213811176
30
0
10
37.936173927451293
20
217.70467727564517
30
0
10
39.313999693279442
20
217.63455905473148
30
0
10
39.973423252844064
20
217.60100067023032
30
0
10
40.632846812408687
20
217.56744228572916
30
0
10
41.292270371973345
20
217.53388390122797
30
0
0
SPLINE
5
150
100
AcDbEntity
8
0
100
AcDbSpline
70
0
71
3
72
11
73
7
74
0
42
0.000000001
43
0.0000000001
44
0.0000000001
40
-0.26040950579467581
40
-0.26040950579467581
40
-0.26040950579467581
40
-0.26040950579467581
40
0
40
0
40
0
40
1
40
1
40
1
40
1
10
41.292270371973288
20
217.53388390122802
30
0
10
41.434245096274871
20
218.17871626218604
30
0
10
41.576219820576455
20
218.82354862314403
30
0
10
41.718194544878038
20
219.46838098410208
30
0
10
42.208134029418957
20
221.69362802083504
30
0
10
43.090182886119962
20
223.87821074984967
30
0
10
44.488214202386835
20
225.49096177611335
30
0
0
SPLINE
5
151
100
AcDbEntity
8
0
100
AcDbSpline
70
0
71
3
72
14
73
10
74
0
42
0.000000001
43
0.0000000001
44
0.0000000001
40
3.9500611041612333e-05
40
3.9500611041612333e-05
40
3.9500611041612333e-05
40
3.9500611041612333e-05
40
0.93070989122506564
40
0.93070989122506564
40
0.93070989122506564
40
1
40
1
40
1
40
1.0000033130061527
40
1.0000033130061527
40
1.0000033130061527
40
1.0000033130061527
10
44.488214219178133
20
225.49096176151875
30
0
10
45.974852540575206
20
227.20540165039614
30
0
10
47.815199487286868
20
228.15857303042191
30
0
10
50.059653906794168
20
228.38618339653297
30
0
10
50.226757633781162
20
228.40312940361042
30
0
10
50.396158363704387
20
228.41578309346988
30
0
10
50.567860913845635
20
228.42403350737817
30
0
10
50.567871078049542
20
228.42403399577449
30
0
10
50.567881242244475
20
228.42403448417033
30
0
10
50.567891405171622
20
228.42403497250527
30
0
0
SPLINE
5
152
100
AcDbEntity
8
0
100
AcDbSpline
70
0
71
3
72
14
73
10
74
0
42
0.000000001
43
0.0000000001
44
0.0000000001
40
-6.7956573112667415e-06
40
-6.7956573112667415e-06
40
-6.7956573112667415e-06
40
-6.7956573112667415e-06
40
0
40
0
40
0
40
1
40
1
40
1
40
1.4861705373762104
40
1.4861705373762104
40
1.4861705373762104
40
1.4861705373762104
10
50.567891408041838
20
228.42403497264328
30
0
10
50.567901570600029
20
228.42403546122625
30
0
10
50.567911734835072
20
228.42403594988983
30
0
10
50.567921899137509
20
228.4240364385567
30
0
10
51.887497115070367
20
228.48747735475473
30
0
10
53.072200658990894
20
228.39403234984414
30
0
10
54.103870153039601
20
228.1697412016016
30
0
10
54.717162955723452
20
228.03640766046624
30
0
10
55.330455758407297
20
227.90307411933082
30
0
10
55.943748561091141
20
227.76974057819544
30
0
0
SPLINE
5
153
100
AcDbEntity
8
0
100
AcDbSpline
70
0
71
3
72
11
73
7
74
0
42
0.000000001
43
0.0000000001
44
0.0000000001
40
-0.27293891020949501
40
-0.27293891020949501
40
-0.27293891020949501
40
-0.27293891020949501
40
0
40
0
40
0
40
1
40
1
40
1
40
1
10
55.943748561091155
20
227.76974057819552
30
0
10
56.205238286864734
20
228.34029208185697
30
0
10
56.466728012638328
20
228.91084358551842
30
0
10
56.728217738411921
20
229.4813950891799
30
0
10
57.57799749595938
20
231.33555252123745
30
0
10
58.718620971195612
20
232.99529694436885
30
0
10
60.195889448214182
20
234.18240772655321
30
0
0
SPLINE
5
154
100
AcDbEntity
8
0
100
AcDbSpline
70
0
71
3
72
14
73
10
74
0
42
0.000000001
43
0.0000000001
44
0.0000000001
40
2.0774793328128577e-05
40
2.0774793328128577e-05
40
2.0774793328128577e-05
40
2.0774793328128577e-05
40
0.94864645751893506
40
0.94864645751893506
40
0.94864645751893506
40
1
40
1
40
1
40
1.0000556804999954
40
1.0000556804999954
40
1.0000556804999954
40
1.0000556804999954
10
60.195889452275686
20
234.18240772146629
30
0
10
62.054178217237343
20
235.67544919481404
30
0
10
64.19809241211253
20
236.329058264168
30
0
10
66.665354358479561
20
236.12991966849205
30
0
10
66.798918780655669
20
236.11913936545062
30
0
10
66.933409350316296
20
236.10571726313884
30
0
10
67.068811676281342
20
236.08960909022468
30
0
10
67.068990017123397
20
236.08958787386001
30
0
10
67.069168357967811
20
236.08956665749514
30
0
10
67.069346698716899
20
236.08954544114152
30
0
0
SPLINE
5
155
100
AcDbEntity
8
0
100
AcDbSpline
70
0
71
3
72
14
73
10
74
0
42
0.000000001
43
0.0000000001
44
0.0000000001
40
-6.6460835553777464e-05
40
-6.6460835553777464e-05
40
-6.6460835553777464e-05
40
-6.6460835553777464e-05
40
0
40
0
40
0
40
1
40
1
40
1
40
1.3547402011528082
40
1.3547402011528082
40
1.3547402011528082
40
1.3547402011528082
10
67.069346698972595
20
236.08954544111114
30
0
10
67.069525049439761
20
236.08952430689124
30
0
10
67.069703400068917
20
236.08950317265209
30
0
10
67.069881750701938
20
236.08948203841254
30
0
10
69.422070690705468
20
235.81075174341237
30
0
10
71.502462830900839
20
235.03916018791247
30
0
10
72.969206628352467
20
234.08433518884408
30
0
10
73.614120344151516
20
233.66450744581439
30
0
10
74.259034059950565
20
233.24467970278462
30
0
10
74.9039477757496
20
232.82485195975482
30
0
0
SPLINE
5
156
100
AcDbEntity
8
0
100
AcDbSpline
70
0
71
3
72
14
73
10
74
0
42
0.000000001
43
0.0000000001
44
0.0000000001
40
-0.32802383628367116
40
-0.32802383628367116
40
-0.32802383628367116
40
-0.32802383628367116
40
0
40
0
40
0
40
1
40
1
40
1
40
1.0000407528220341
40
1.0000407528220341
40
1.0000407528220341
40
1.0000407528220341
10
74.903947775749629
20
232.82485195975485
30
0
10
75.332455992607208
20
233.46403091961565
30
0
10
75.760964209464817
20
234.10320987947645
30
0
10
76.189472426322382
20
234.74238883933722
30
0
10
77.355096471510819
20
236.48107746999162
30
0
10
78.829294266510118
20
238.07027706630146
30
0
10
80.683373645008658
20
239.23559475031581
30
0
10
80.683462944875231
20
239.23565087666879
30
0
10
80.683552244741321
20
239.2357070030215
30
0
10
80.683641544534197
20
239.23576312932821
30
0
0
SPLINE
5
157
100
AcDbEntity
8
0
100
AcDbSpline
70
0
71
3
72
17
73
13
74
0
42
0.000000001
43
0.0000000001
44
0.0000000001
40
-3.3008221589003717e-05
40
-3.3008221589003717e-05
40
-3.3008221589003717e-05
40
-3.3008221589003717e-05
40
0
40
0
40
0
40
0.72692397029822564
40
0.72692397029822564
40
0.72692397029822564
40
1
40
1
40
1
40
1.0000367632917231
40
1.0000367632917231
40
1.0000367632917231
40
1.0000367632917231
10
80.683641544709019
20
239.23576312943817
30
0
10
80.683730829216444
20
239.2358192798286
30
0
10
80.683820113824225
20
239.23587543028205
30
0
10
80.683909398430259
20
239.23593158073447
30
0
10
82.335053553529519
20
240.27432437240776
30
0
10
84.767423797506538
20
241.28420286628054
30
0
10
88.107989358843469
20
241.12539070737893
30
0
10
89.362905165339868
20
241.06573138179161
30
0
10
90.753011647769057
20
240.83849879904736
30
0
10
92.292725497892036
20
240.36455395733984
30
0
10
92.292956810069654
20
240.36448275630897
30
0
10
92.293188122248438
20
240.36441155527771
30
0
10
92.293419434513382
20
240.36434035421991
30
0
0
SPLINE
5
158
100
AcDbEntity
8
0
100
AcDbSpline
70
0
71
3
72
8
73
4
74
0
42
0.000000001
43
0.0000000001
44
0.0000000001
40
6.2624892994914467e-05
40
6.2624892994914467e-05
40
6.2624892994914467e-05
40
6.2624892994914467e-05
40
0.99988348141494843
40
0.99988348141494843
40
0.99988348141494843
40
0.99988348141494843
10
104.42887987998037
20
215.25191668147778
30
0
10
104.03964362946419
20
212.59065873006435
30
0
10
103.15235346857219
20
209.92438468469405
30
0
10
102.24069764026052
20
207.21640736157693
30
0
0
SPLINE
5
159
100
AcDbEntity
8
0
100
AcDbSpline
70
0
71
3
72
17
73
13
74
0
42
0.000000001
43
0.0000000001
44
0.0000000001
40
-1.3542270728401807e-05
40
-1.3542270728401807e-05
40
-1.3542270728401807e-05
40
-1.3542270728401807e-05
40
0
40
0
40
0
40
0.30669065458674777
40
0.30669065458674777
40
0.30669065458674777
40
0.65856119081540332
40
0.65856119081540332
40
0.65856119081540332
40
1
40
1
40
1
40
1
10
92.29341943446525
20
240.36434035423474
30
0
10
92.293650790777448
20
240.36426929676495
30
0
10
92.293882147126581
20
240.36419823928384
30
0
10
92.294113503476169
20
240.36412718180262
30
0
10
97.114540806217192
20
238.8836083923141
30
0
10
100.00950888197289
20
236.56427653193361
30
0
10
101.88691825004211
20
233.90169499180467
30
0
10
104.04089663570028
20
230.84687744107069
30
0
10
104.85040132535175
20
227.21099715394729
30
0
10
105.01700001237019
20
223.76247712475799
30
0
10
105.17865963274357
20
220.41619361709169
30
0
10
104.73141905903043
20
217.32387185787462
30
0
10
104.42887993956708
20
215.2519166727042
30
0
0
ENDSEC
0
SECTION
2
OBJECTS
0
DICTIONARY
5
C
100
AcDbDictionary
3
ACAD_GROUP
350
D
3
ACAD_MLINESTYLE
350
17
0
DICTIONARY
5
D
100
AcDbDictionary
0
DICTIONARY
5
1A
330
C
100
AcDbDictionary
0
DICTIONARY
5
17
100
AcDbDictionary
0
ENDSEC
0
EOF
